<mxfile host="app.diagrams.net" modified="2024-03-26T21:44:02.610Z" agent="Mozilla/5.0 (Windows NT 10.0; Win64; x64) AppleWebKit/537.36 (KHTML, like Gecko) Chrome/123.0.0.0 Safari/537.36" etag="0lgq5fuIYbqBR9jFXPTj" version="24.0.7" type="device">
  <diagram name="Страница — 1" id="Yy_oVvdv5WHtv4DTs_N_">
    <mxGraphModel dx="2026" dy="1799" grid="1" gridSize="10" guides="1" tooltips="1" connect="1" arrows="1" fold="1" page="1" pageScale="1" pageWidth="827" pageHeight="1169" math="0" shadow="0">
      <root>
        <mxCell id="0" />
        <mxCell id="1" parent="0" />
        <mxCell id="lg_ZGlqCutBqFKEGHfZC-1" value="s" style="ellipse;whiteSpace=wrap;html=1;aspect=fixed;fontSize=22;align=center;" parent="1" vertex="1">
          <mxGeometry x="110" y="120" width="30" height="30" as="geometry" />
        </mxCell>
        <mxCell id="lg_ZGlqCutBqFKEGHfZC-2" value="q1" style="ellipse;whiteSpace=wrap;html=1;aspect=fixed;fontSize=22;align=center;" parent="1" vertex="1">
          <mxGeometry x="310" y="120" width="30" height="30" as="geometry" />
        </mxCell>
        <mxCell id="lg_ZGlqCutBqFKEGHfZC-3" value="" style="endArrow=classic;html=1;rounded=0;exitX=1;exitY=0.5;exitDx=0;exitDy=0;entryX=0;entryY=0.5;entryDx=0;entryDy=0;" parent="1" source="lg_ZGlqCutBqFKEGHfZC-1" target="lg_ZGlqCutBqFKEGHfZC-2" edge="1">
          <mxGeometry width="50" height="50" relative="1" as="geometry">
            <mxPoint x="190" y="140" as="sourcePoint" />
            <mxPoint x="240" y="90" as="targetPoint" />
          </mxGeometry>
        </mxCell>
        <mxCell id="lg_ZGlqCutBqFKEGHfZC-4" value="б" style="edgeLabel;html=1;align=center;verticalAlign=middle;resizable=0;points=[];fontSize=18;" parent="lg_ZGlqCutBqFKEGHfZC-3" vertex="1" connectable="0">
          <mxGeometry x="0.1766" relative="1" as="geometry">
            <mxPoint x="-10" y="-15" as="offset" />
          </mxGeometry>
        </mxCell>
        <mxCell id="lg_ZGlqCutBqFKEGHfZC-10" value="Семантическая процедура 1" style="rounded=0;whiteSpace=wrap;html=1;" parent="1" vertex="1">
          <mxGeometry x="500" y="120" width="120" height="60" as="geometry" />
        </mxCell>
        <mxCell id="lg_ZGlqCutBqFKEGHfZC-11" value="" style="endArrow=classic;html=1;rounded=0;exitX=0.5;exitY=1;exitDx=0;exitDy=0;entryX=0;entryY=0.5;entryDx=0;entryDy=0;" parent="1" source="lg_ZGlqCutBqFKEGHfZC-2" target="lg_ZGlqCutBqFKEGHfZC-10" edge="1">
          <mxGeometry width="50" height="50" relative="1" as="geometry">
            <mxPoint x="380" y="190" as="sourcePoint" />
            <mxPoint x="430" y="140" as="targetPoint" />
          </mxGeometry>
        </mxCell>
        <mxCell id="lg_ZGlqCutBqFKEGHfZC-13" value="Операция,&lt;div style=&quot;font-size: 9px;&quot;&gt;разделитель&lt;/div&gt;" style="text;html=1;align=center;verticalAlign=middle;resizable=0;points=[];autosize=1;strokeColor=none;fillColor=none;fontSize=9;" parent="1" vertex="1">
          <mxGeometry x="420" y="115" width="80" height="40" as="geometry" />
        </mxCell>
        <mxCell id="lg_ZGlqCutBqFKEGHfZC-14" value="" style="endArrow=classic;html=1;rounded=0;exitX=1;exitY=0.5;exitDx=0;exitDy=0;entryX=0.5;entryY=0;entryDx=0;entryDy=0;" parent="1" source="lg_ZGlqCutBqFKEGHfZC-10" target="lg_ZGlqCutBqFKEGHfZC-1" edge="1">
          <mxGeometry width="50" height="50" relative="1" as="geometry">
            <mxPoint x="335" y="160" as="sourcePoint" />
            <mxPoint x="335" y="261" as="targetPoint" />
            <Array as="points">
              <mxPoint x="660" y="150" />
              <mxPoint x="660" y="-70" />
              <mxPoint x="125" y="-70" />
            </Array>
          </mxGeometry>
        </mxCell>
        <mxCell id="lg_ZGlqCutBqFKEGHfZC-15" value="" style="endArrow=classic;html=1;rounded=0;exitX=1;exitY=0.5;exitDx=0;exitDy=0;entryX=0.5;entryY=1;entryDx=0;entryDy=0;" parent="1" source="lg_ZGlqCutBqFKEGHfZC-2" target="lg_ZGlqCutBqFKEGHfZC-16" edge="1">
          <mxGeometry width="50" height="50" relative="1" as="geometry">
            <mxPoint x="365" y="65" as="sourcePoint" />
            <mxPoint x="435" y="-50" as="targetPoint" />
          </mxGeometry>
        </mxCell>
        <mxCell id="lg_ZGlqCutBqFKEGHfZC-16" value="q2" style="ellipse;whiteSpace=wrap;html=1;aspect=fixed;fontSize=22;align=center;" parent="1" vertex="1">
          <mxGeometry x="420" y="10" width="30" height="30" as="geometry" />
        </mxCell>
        <mxCell id="lg_ZGlqCutBqFKEGHfZC-17" value="ц," style="text;html=1;align=center;verticalAlign=middle;resizable=0;points=[];autosize=1;strokeColor=none;fillColor=none;" parent="1" vertex="1">
          <mxGeometry x="384" y="70" width="30" height="30" as="geometry" />
        </mxCell>
        <mxCell id="lg_ZGlqCutBqFKEGHfZC-20" value="" style="endArrow=classic;html=1;rounded=0;exitX=1;exitY=0.5;exitDx=0;exitDy=0;entryX=0;entryY=0.5;entryDx=0;entryDy=0;" parent="1" source="lg_ZGlqCutBqFKEGHfZC-16" target="lg_ZGlqCutBqFKEGHfZC-22" edge="1">
          <mxGeometry width="50" height="50" relative="1" as="geometry">
            <mxPoint x="365" y="15" as="sourcePoint" />
            <mxPoint x="300" y="15" as="targetPoint" />
          </mxGeometry>
        </mxCell>
        <mxCell id="lg_ZGlqCutBqFKEGHfZC-21" value="Операция,&lt;div style=&quot;font-size: 7px;&quot;&gt;разделитель&lt;/div&gt;" style="text;html=1;align=center;verticalAlign=middle;resizable=0;points=[];autosize=1;strokeColor=none;fillColor=none;fontSize=7;" parent="1" vertex="1">
          <mxGeometry x="450" width="60" height="30" as="geometry" />
        </mxCell>
        <mxCell id="lg_ZGlqCutBqFKEGHfZC-22" value="Семантическая процедура 2" style="rounded=0;whiteSpace=wrap;html=1;" parent="1" vertex="1">
          <mxGeometry x="510" y="-5" width="120" height="60" as="geometry" />
        </mxCell>
        <mxCell id="lg_ZGlqCutBqFKEGHfZC-24" value="" style="endArrow=classic;html=1;rounded=0;entryX=0.5;entryY=0;entryDx=0;entryDy=0;exitX=0.5;exitY=0;exitDx=0;exitDy=0;" parent="1" source="lg_ZGlqCutBqFKEGHfZC-22" target="lg_ZGlqCutBqFKEGHfZC-1" edge="1">
          <mxGeometry width="50" height="50" relative="1" as="geometry">
            <mxPoint x="530" y="-70" as="sourcePoint" />
            <mxPoint x="150" y="50" as="targetPoint" />
            <Array as="points">
              <mxPoint x="570" y="-40" />
              <mxPoint x="125" y="-40" />
            </Array>
          </mxGeometry>
        </mxCell>
        <mxCell id="lg_ZGlqCutBqFKEGHfZC-28" value="" style="endArrow=classic;html=1;rounded=0;exitX=0;exitY=0;exitDx=0;exitDy=0;entryX=1;entryY=0;entryDx=0;entryDy=0;" parent="1" source="lg_ZGlqCutBqFKEGHfZC-2" target="lg_ZGlqCutBqFKEGHfZC-2" edge="1">
          <mxGeometry width="50" height="50" relative="1" as="geometry">
            <mxPoint x="260" y="55" as="sourcePoint" />
            <mxPoint x="320" y="55" as="targetPoint" />
            <Array as="points">
              <mxPoint x="290" y="100" />
              <mxPoint x="290" y="70" />
              <mxPoint x="310" y="60" />
              <mxPoint x="340" y="70" />
            </Array>
          </mxGeometry>
        </mxCell>
        <mxCell id="lg_ZGlqCutBqFKEGHfZC-29" value="б,_" style="text;html=1;align=center;verticalAlign=middle;resizable=0;points=[];autosize=1;strokeColor=none;fillColor=none;" parent="1" vertex="1">
          <mxGeometry x="275" y="40" width="40" height="30" as="geometry" />
        </mxCell>
        <mxCell id="lg_ZGlqCutBqFKEGHfZC-30" value="" style="endArrow=classic;html=1;rounded=0;exitX=0;exitY=1;exitDx=0;exitDy=0;entryX=0;entryY=0;entryDx=0;entryDy=0;" parent="1" source="lg_ZGlqCutBqFKEGHfZC-16" target="lg_ZGlqCutBqFKEGHfZC-16" edge="1">
          <mxGeometry width="50" height="50" relative="1" as="geometry">
            <mxPoint x="334" y="59" as="sourcePoint" />
            <mxPoint x="356" y="59" as="targetPoint" />
            <Array as="points">
              <mxPoint x="390" y="40" />
              <mxPoint x="380" y="20" />
              <mxPoint x="390" />
            </Array>
          </mxGeometry>
        </mxCell>
        <mxCell id="lg_ZGlqCutBqFKEGHfZC-31" value="б,ц,_" style="text;html=1;align=center;verticalAlign=middle;resizable=0;points=[];autosize=1;strokeColor=none;fillColor=none;" parent="1" vertex="1">
          <mxGeometry x="345" y="8" width="50" height="30" as="geometry" />
        </mxCell>
        <mxCell id="lg_ZGlqCutBqFKEGHfZC-32" value="q3" style="ellipse;whiteSpace=wrap;html=1;aspect=fixed;fontSize=22;align=center;" parent="1" vertex="1">
          <mxGeometry x="310" y="260" width="30" height="30" as="geometry" />
        </mxCell>
        <mxCell id="lg_ZGlqCutBqFKEGHfZC-33" value="" style="endArrow=classic;html=1;rounded=0;exitX=1;exitY=1;exitDx=0;exitDy=0;entryX=0;entryY=0.5;entryDx=0;entryDy=0;" parent="1" source="lg_ZGlqCutBqFKEGHfZC-1" target="lg_ZGlqCutBqFKEGHfZC-32" edge="1">
          <mxGeometry width="50" height="50" relative="1" as="geometry">
            <mxPoint x="150" y="145" as="sourcePoint" />
            <mxPoint x="320" y="145" as="targetPoint" />
          </mxGeometry>
        </mxCell>
        <mxCell id="lg_ZGlqCutBqFKEGHfZC-34" value="ц" style="edgeLabel;html=1;align=center;verticalAlign=middle;resizable=0;points=[];fontSize=18;" parent="lg_ZGlqCutBqFKEGHfZC-33" vertex="1" connectable="0">
          <mxGeometry x="0.1766" relative="1" as="geometry">
            <mxPoint x="2" y="-15" as="offset" />
          </mxGeometry>
        </mxCell>
        <mxCell id="lg_ZGlqCutBqFKEGHfZC-35" value="" style="endArrow=classic;html=1;rounded=0;exitX=1;exitY=0;exitDx=0;exitDy=0;entryX=0;entryY=0;entryDx=0;entryDy=0;" parent="1" source="lg_ZGlqCutBqFKEGHfZC-32" target="lg_ZGlqCutBqFKEGHfZC-32" edge="1">
          <mxGeometry width="50" height="50" relative="1" as="geometry">
            <mxPoint x="361.2166017177982" y="240.00339828220183" as="sourcePoint" />
            <mxPoint x="340.00339828220183" y="240.00339828220183" as="targetPoint" />
            <Array as="points">
              <mxPoint x="340" y="240" />
              <mxPoint x="330" y="230" />
              <mxPoint x="314" y="240" />
            </Array>
          </mxGeometry>
        </mxCell>
        <mxCell id="lg_ZGlqCutBqFKEGHfZC-36" value="ц" style="edgeLabel;html=1;align=center;verticalAlign=middle;resizable=0;points=[];fontSize=18;" parent="lg_ZGlqCutBqFKEGHfZC-35" vertex="1" connectable="0">
          <mxGeometry x="0.1766" relative="1" as="geometry">
            <mxPoint x="2" y="-15" as="offset" />
          </mxGeometry>
        </mxCell>
        <mxCell id="lg_ZGlqCutBqFKEGHfZC-37" value="q4" style="ellipse;whiteSpace=wrap;html=1;aspect=fixed;fontSize=22;align=center;" parent="1" vertex="1">
          <mxGeometry x="420" y="260" width="30" height="30" as="geometry" />
        </mxCell>
        <mxCell id="lg_ZGlqCutBqFKEGHfZC-38" value="" style="endArrow=classic;html=1;rounded=0;exitX=1;exitY=0.5;exitDx=0;exitDy=0;entryX=0;entryY=0.5;entryDx=0;entryDy=0;" parent="1" source="lg_ZGlqCutBqFKEGHfZC-32" target="lg_ZGlqCutBqFKEGHfZC-37" edge="1">
          <mxGeometry width="50" height="50" relative="1" as="geometry">
            <mxPoint x="360" y="270" as="sourcePoint" />
            <mxPoint x="410" y="220" as="targetPoint" />
          </mxGeometry>
        </mxCell>
        <mxCell id="lg_ZGlqCutBqFKEGHfZC-39" value="&quot;&lt;span style=&quot;background-color: initial; font-size: 19px;&quot;&gt;.&quot;&lt;/span&gt;" style="text;html=1;align=center;verticalAlign=middle;resizable=0;points=[];autosize=1;strokeColor=none;fillColor=none;fontSize=19;" parent="1" vertex="1">
          <mxGeometry x="355" y="245" width="40" height="40" as="geometry" />
        </mxCell>
        <mxCell id="lg_ZGlqCutBqFKEGHfZC-40" value="" style="endArrow=classic;html=1;rounded=0;exitX=1;exitY=0;exitDx=0;exitDy=0;entryX=0;entryY=0;entryDx=0;entryDy=0;" parent="1" source="lg_ZGlqCutBqFKEGHfZC-37" target="lg_ZGlqCutBqFKEGHfZC-37" edge="1">
          <mxGeometry width="50" height="50" relative="1" as="geometry">
            <mxPoint x="446" y="250" as="sourcePoint" />
            <mxPoint x="424" y="250" as="targetPoint" />
            <Array as="points">
              <mxPoint x="450" y="240" />
              <mxPoint x="435" y="230" />
              <mxPoint x="420" y="240" />
            </Array>
          </mxGeometry>
        </mxCell>
        <mxCell id="lg_ZGlqCutBqFKEGHfZC-41" value="ц" style="edgeLabel;html=1;align=center;verticalAlign=middle;resizable=0;points=[];fontSize=18;" parent="lg_ZGlqCutBqFKEGHfZC-40" vertex="1" connectable="0">
          <mxGeometry x="0.1766" relative="1" as="geometry">
            <mxPoint x="2" y="-15" as="offset" />
          </mxGeometry>
        </mxCell>
        <mxCell id="lg_ZGlqCutBqFKEGHfZC-42" value="Семантическая процедура 3" style="rounded=0;whiteSpace=wrap;html=1;" parent="1" vertex="1">
          <mxGeometry x="570" y="245" width="120" height="60" as="geometry" />
        </mxCell>
        <mxCell id="lg_ZGlqCutBqFKEGHfZC-43" value="" style="endArrow=classic;html=1;rounded=0;exitX=1;exitY=0.5;exitDx=0;exitDy=0;entryX=0;entryY=0.5;entryDx=0;entryDy=0;" parent="1" source="lg_ZGlqCutBqFKEGHfZC-37" target="lg_ZGlqCutBqFKEGHfZC-42" edge="1">
          <mxGeometry width="50" height="50" relative="1" as="geometry">
            <mxPoint x="470" y="274.76" as="sourcePoint" />
            <mxPoint x="550" y="274.76" as="targetPoint" />
          </mxGeometry>
        </mxCell>
        <mxCell id="lg_ZGlqCutBqFKEGHfZC-44" value="Операция,&lt;div style=&quot;font-size: 10px;&quot;&gt;разделитель&lt;/div&gt;" style="text;html=1;align=center;verticalAlign=middle;resizable=0;points=[];autosize=1;strokeColor=none;fillColor=none;fontSize=10;" parent="1" vertex="1">
          <mxGeometry x="470" y="240" width="80" height="40" as="geometry" />
        </mxCell>
        <mxCell id="lg_ZGlqCutBqFKEGHfZC-45" value="" style="endArrow=classic;html=1;rounded=0;exitX=1;exitY=0.5;exitDx=0;exitDy=0;entryX=0.5;entryY=0;entryDx=0;entryDy=0;" parent="1" source="lg_ZGlqCutBqFKEGHfZC-42" target="lg_ZGlqCutBqFKEGHfZC-1" edge="1">
          <mxGeometry width="50" height="50" relative="1" as="geometry">
            <mxPoint x="705" y="275" as="sourcePoint" />
            <mxPoint x="210" y="245" as="targetPoint" />
            <Array as="points">
              <mxPoint x="745" y="275" />
              <mxPoint x="745" y="-100" />
              <mxPoint x="125" y="-100" />
            </Array>
          </mxGeometry>
        </mxCell>
        <mxCell id="lg_ZGlqCutBqFKEGHfZC-46" value="q5" style="ellipse;whiteSpace=wrap;html=1;aspect=fixed;fontSize=22;align=center;" parent="1" vertex="1">
          <mxGeometry x="415" y="345" width="30" height="30" as="geometry" />
        </mxCell>
        <mxCell id="lg_ZGlqCutBqFKEGHfZC-47" value="" style="endArrow=classic;html=1;rounded=0;exitX=0.5;exitY=1;exitDx=0;exitDy=0;entryX=0;entryY=0.5;entryDx=0;entryDy=0;" parent="1" source="lg_ZGlqCutBqFKEGHfZC-32" target="lg_ZGlqCutBqFKEGHfZC-46" edge="1">
          <mxGeometry width="50" height="50" relative="1" as="geometry">
            <mxPoint x="146" y="156" as="sourcePoint" />
            <mxPoint x="320" y="285" as="targetPoint" />
          </mxGeometry>
        </mxCell>
        <mxCell id="lg_ZGlqCutBqFKEGHfZC-48" value="e,E" style="edgeLabel;html=1;align=center;verticalAlign=middle;resizable=0;points=[];fontSize=18;" parent="lg_ZGlqCutBqFKEGHfZC-47" vertex="1" connectable="0">
          <mxGeometry x="0.1766" relative="1" as="geometry">
            <mxPoint x="18" y="-6" as="offset" />
          </mxGeometry>
        </mxCell>
        <mxCell id="lg_ZGlqCutBqFKEGHfZC-49" value="" style="endArrow=classic;html=1;rounded=0;entryX=0;entryY=1;entryDx=0;entryDy=0;exitX=1;exitY=1;exitDx=0;exitDy=0;" parent="1" source="lg_ZGlqCutBqFKEGHfZC-55" target="lg_ZGlqCutBqFKEGHfZC-55" edge="1">
          <mxGeometry width="50" height="50" relative="1" as="geometry">
            <mxPoint x="635.6066017177943" y="399.9966017177943" as="sourcePoint" />
            <mxPoint x="614.3933982822057" y="399.9966017177943" as="targetPoint" />
            <Array as="points">
              <mxPoint x="530" y="390" />
              <mxPoint x="510" y="400" />
              <mxPoint x="490" y="390" />
            </Array>
          </mxGeometry>
        </mxCell>
        <mxCell id="lg_ZGlqCutBqFKEGHfZC-50" value="ц" style="edgeLabel;html=1;align=center;verticalAlign=middle;resizable=0;points=[];fontSize=18;" parent="lg_ZGlqCutBqFKEGHfZC-49" vertex="1" connectable="0">
          <mxGeometry x="0.1766" relative="1" as="geometry">
            <mxPoint x="2" y="18" as="offset" />
          </mxGeometry>
        </mxCell>
        <mxCell id="lg_ZGlqCutBqFKEGHfZC-51" value="" style="endArrow=classic;html=1;rounded=0;exitX=0.5;exitY=1;exitDx=0;exitDy=0;entryX=0.5;entryY=0;entryDx=0;entryDy=0;" parent="1" source="lg_ZGlqCutBqFKEGHfZC-37" target="lg_ZGlqCutBqFKEGHfZC-46" edge="1">
          <mxGeometry width="50" height="50" relative="1" as="geometry">
            <mxPoint x="335" y="300" as="sourcePoint" />
            <mxPoint x="430" y="395" as="targetPoint" />
          </mxGeometry>
        </mxCell>
        <mxCell id="lg_ZGlqCutBqFKEGHfZC-52" value="e,E" style="edgeLabel;html=1;align=center;verticalAlign=middle;resizable=0;points=[];fontSize=18;" parent="lg_ZGlqCutBqFKEGHfZC-51" vertex="1" connectable="0">
          <mxGeometry x="0.1766" relative="1" as="geometry">
            <mxPoint x="18" y="-6" as="offset" />
          </mxGeometry>
        </mxCell>
        <mxCell id="lg_ZGlqCutBqFKEGHfZC-53" value="" style="endArrow=classic;html=1;rounded=0;exitX=1;exitY=0.5;exitDx=0;exitDy=0;entryX=0;entryY=0.5;entryDx=0;entryDy=0;" parent="1" source="lg_ZGlqCutBqFKEGHfZC-46" target="lg_ZGlqCutBqFKEGHfZC-55" edge="1">
          <mxGeometry width="50" height="50" relative="1" as="geometry">
            <mxPoint x="510" y="385" as="sourcePoint" />
            <mxPoint x="630" y="385" as="targetPoint" />
          </mxGeometry>
        </mxCell>
        <mxCell id="lg_ZGlqCutBqFKEGHfZC-54" value="Операция,&lt;div style=&quot;font-size: 10px;&quot;&gt;разделитель&lt;/div&gt;" style="text;html=1;align=center;verticalAlign=middle;resizable=0;points=[];autosize=1;strokeColor=none;fillColor=none;fontSize=10;" parent="1" vertex="1">
          <mxGeometry x="540" y="340" width="80" height="40" as="geometry" />
        </mxCell>
        <mxCell id="lg_ZGlqCutBqFKEGHfZC-55" value="q6" style="ellipse;whiteSpace=wrap;html=1;aspect=fixed;fontSize=22;align=center;" parent="1" vertex="1">
          <mxGeometry x="495" y="345" width="30" height="30" as="geometry" />
        </mxCell>
        <mxCell id="lg_ZGlqCutBqFKEGHfZC-57" value="-,ц" style="text;html=1;align=center;verticalAlign=middle;resizable=0;points=[];autosize=1;strokeColor=none;fillColor=none;" parent="1" vertex="1">
          <mxGeometry x="450" y="358" width="40" height="30" as="geometry" />
        </mxCell>
        <mxCell id="lg_ZGlqCutBqFKEGHfZC-58" value="" style="endArrow=classic;html=1;rounded=0;exitX=1;exitY=0.5;exitDx=0;exitDy=0;entryX=0;entryY=1;entryDx=0;entryDy=0;" parent="1" source="lg_ZGlqCutBqFKEGHfZC-55" target="lg_ZGlqCutBqFKEGHfZC-42" edge="1">
          <mxGeometry width="50" height="50" relative="1" as="geometry">
            <mxPoint x="460" y="395" as="sourcePoint" />
            <mxPoint x="510" y="395" as="targetPoint" />
          </mxGeometry>
        </mxCell>
        <mxCell id="lg_ZGlqCutBqFKEGHfZC-59" value="" style="endArrow=classic;html=1;rounded=0;exitX=1;exitY=1;exitDx=0;exitDy=0;entryX=0;entryY=0.5;entryDx=0;entryDy=0;" parent="1" source="lg_ZGlqCutBqFKEGHfZC-1" target="lg_ZGlqCutBqFKEGHfZC-61" edge="1">
          <mxGeometry width="50" height="50" relative="1" as="geometry">
            <mxPoint x="146" y="156" as="sourcePoint" />
            <mxPoint x="340" y="190" as="targetPoint" />
          </mxGeometry>
        </mxCell>
        <mxCell id="lg_ZGlqCutBqFKEGHfZC-60" value="&quot;.&quot;" style="edgeLabel;html=1;align=center;verticalAlign=middle;resizable=0;points=[];fontSize=24;" parent="lg_ZGlqCutBqFKEGHfZC-59" vertex="1" connectable="0">
          <mxGeometry x="0.1766" relative="1" as="geometry">
            <mxPoint x="12" y="-17" as="offset" />
          </mxGeometry>
        </mxCell>
        <mxCell id="lg_ZGlqCutBqFKEGHfZC-61" value="q7" style="ellipse;whiteSpace=wrap;html=1;aspect=fixed;fontSize=22;align=center;" parent="1" vertex="1">
          <mxGeometry x="190" y="320" width="30" height="30" as="geometry" />
        </mxCell>
        <mxCell id="lg_ZGlqCutBqFKEGHfZC-62" value="" style="endArrow=classic;html=1;rounded=0;exitX=1;exitY=0.5;exitDx=0;exitDy=0;entryX=0;entryY=1;entryDx=0;entryDy=0;" parent="1" source="lg_ZGlqCutBqFKEGHfZC-61" target="lg_ZGlqCutBqFKEGHfZC-37" edge="1">
          <mxGeometry width="50" height="50" relative="1" as="geometry">
            <mxPoint x="420" y="180" as="sourcePoint" />
            <mxPoint x="300" y="350" as="targetPoint" />
          </mxGeometry>
        </mxCell>
        <mxCell id="lg_ZGlqCutBqFKEGHfZC-63" value="ц" style="edgeLabel;html=1;align=center;verticalAlign=middle;resizable=0;points=[];fontSize=18;" parent="lg_ZGlqCutBqFKEGHfZC-62" vertex="1" connectable="0">
          <mxGeometry x="0.1766" relative="1" as="geometry">
            <mxPoint x="-100" y="14" as="offset" />
          </mxGeometry>
        </mxCell>
        <mxCell id="lg_ZGlqCutBqFKEGHfZC-65" value="q8" style="ellipse;whiteSpace=wrap;html=1;aspect=fixed;fontSize=22;align=center;" parent="1" vertex="1">
          <mxGeometry x="170" y="388" width="30" height="30" as="geometry" />
        </mxCell>
        <mxCell id="lg_ZGlqCutBqFKEGHfZC-66" value="" style="endArrow=classic;html=1;rounded=0;exitX=0.5;exitY=1;exitDx=0;exitDy=0;entryX=0;entryY=0.5;entryDx=0;entryDy=0;" parent="1" source="lg_ZGlqCutBqFKEGHfZC-1" target="lg_ZGlqCutBqFKEGHfZC-65" edge="1">
          <mxGeometry width="50" height="50" relative="1" as="geometry">
            <mxPoint x="146" y="156" as="sourcePoint" />
            <mxPoint x="200" y="345" as="targetPoint" />
          </mxGeometry>
        </mxCell>
        <mxCell id="lg_ZGlqCutBqFKEGHfZC-67" value="&#39;" style="edgeLabel;html=1;align=center;verticalAlign=middle;resizable=0;points=[];fontSize=18;" parent="lg_ZGlqCutBqFKEGHfZC-66" vertex="1" connectable="0">
          <mxGeometry x="0.1766" relative="1" as="geometry">
            <mxPoint x="19" y="52" as="offset" />
          </mxGeometry>
        </mxCell>
        <mxCell id="lg_ZGlqCutBqFKEGHfZC-68" value="" style="endArrow=classic;html=1;rounded=0;exitX=0.5;exitY=1;exitDx=0;exitDy=0;entryX=1;entryY=1;entryDx=0;entryDy=0;" parent="1" source="lg_ZGlqCutBqFKEGHfZC-65" target="lg_ZGlqCutBqFKEGHfZC-65" edge="1">
          <mxGeometry width="50" height="50" relative="1" as="geometry">
            <mxPoint x="310" y="388" as="sourcePoint" />
            <mxPoint x="220" y="450" as="targetPoint" />
            <Array as="points">
              <mxPoint x="170" y="430" />
              <mxPoint x="170" y="460" />
              <mxPoint x="200" y="460" />
              <mxPoint x="210" y="450" />
              <mxPoint x="220" y="430" />
            </Array>
          </mxGeometry>
        </mxCell>
        <mxCell id="lg_ZGlqCutBqFKEGHfZC-71" value="Семантическая процедура 4" style="rounded=0;whiteSpace=wrap;html=1;" parent="1" vertex="1">
          <mxGeometry x="570" y="430" width="120" height="60" as="geometry" />
        </mxCell>
        <mxCell id="lg_ZGlqCutBqFKEGHfZC-72" value="" style="endArrow=classic;html=1;rounded=0;exitX=1;exitY=0.5;exitDx=0;exitDy=0;entryX=0;entryY=0.5;entryDx=0;entryDy=0;" parent="1" source="lg_ZGlqCutBqFKEGHfZC-65" target="lg_ZGlqCutBqFKEGHfZC-71" edge="1">
          <mxGeometry width="50" height="50" relative="1" as="geometry">
            <mxPoint x="135" y="160" as="sourcePoint" />
            <mxPoint x="180" y="413" as="targetPoint" />
          </mxGeometry>
        </mxCell>
        <mxCell id="lg_ZGlqCutBqFKEGHfZC-73" value="&#39;" style="edgeLabel;html=1;align=center;verticalAlign=middle;resizable=0;points=[];fontSize=18;" parent="lg_ZGlqCutBqFKEGHfZC-72" vertex="1" connectable="0">
          <mxGeometry x="0.1766" relative="1" as="geometry">
            <mxPoint x="-23" y="-15" as="offset" />
          </mxGeometry>
        </mxCell>
        <mxCell id="lg_ZGlqCutBqFKEGHfZC-74" value="" style="endArrow=classic;html=1;rounded=0;exitX=1;exitY=0.5;exitDx=0;exitDy=0;entryX=0.5;entryY=0;entryDx=0;entryDy=0;" parent="1" source="lg_ZGlqCutBqFKEGHfZC-71" target="lg_ZGlqCutBqFKEGHfZC-1" edge="1">
          <mxGeometry width="50" height="50" relative="1" as="geometry">
            <mxPoint x="755" y="445" as="sourcePoint" />
            <mxPoint x="130" y="-120" as="targetPoint" />
            <Array as="points">
              <mxPoint x="760" y="460" />
              <mxPoint x="760" y="-120" />
              <mxPoint x="125" y="-120" />
            </Array>
          </mxGeometry>
        </mxCell>
        <mxCell id="lg_ZGlqCutBqFKEGHfZC-75" value="" style="endArrow=classic;html=1;rounded=0;exitX=1;exitY=0;exitDx=0;exitDy=0;entryX=0;entryY=0.5;entryDx=0;entryDy=0;" parent="1" source="lg_ZGlqCutBqFKEGHfZC-1" target="lg_ZGlqCutBqFKEGHfZC-77" edge="1">
          <mxGeometry width="50" height="50" relative="1" as="geometry">
            <mxPoint x="150" y="38" as="sourcePoint" />
            <mxPoint x="200" y="40" as="targetPoint" />
          </mxGeometry>
        </mxCell>
        <mxCell id="lg_ZGlqCutBqFKEGHfZC-76" value="$" style="edgeLabel;html=1;align=center;verticalAlign=middle;resizable=0;points=[];fontSize=18;" parent="lg_ZGlqCutBqFKEGHfZC-75" vertex="1" connectable="0">
          <mxGeometry x="0.1766" relative="1" as="geometry">
            <mxPoint x="-10" y="-15" as="offset" />
          </mxGeometry>
        </mxCell>
        <mxCell id="lg_ZGlqCutBqFKEGHfZC-77" value="q9" style="ellipse;whiteSpace=wrap;html=1;aspect=fixed;fontSize=22;align=center;" parent="1" vertex="1">
          <mxGeometry x="210" y="30" width="30" height="30" as="geometry" />
        </mxCell>
        <mxCell id="lg_ZGlqCutBqFKEGHfZC-78" value="" style="endArrow=classic;html=1;rounded=0;exitX=1;exitY=0.5;exitDx=0;exitDy=0;entryX=0;entryY=0.5;entryDx=0;entryDy=0;" parent="1" source="lg_ZGlqCutBqFKEGHfZC-77" target="lg_ZGlqCutBqFKEGHfZC-2" edge="1">
          <mxGeometry width="50" height="50" relative="1" as="geometry">
            <mxPoint x="150" y="145" as="sourcePoint" />
            <mxPoint x="320" y="145" as="targetPoint" />
          </mxGeometry>
        </mxCell>
        <mxCell id="lg_ZGlqCutBqFKEGHfZC-79" value="б" style="edgeLabel;html=1;align=center;verticalAlign=middle;resizable=0;points=[];fontSize=18;" parent="lg_ZGlqCutBqFKEGHfZC-78" vertex="1" connectable="0">
          <mxGeometry x="0.1766" relative="1" as="geometry">
            <mxPoint x="-10" y="-15" as="offset" />
          </mxGeometry>
        </mxCell>
        <mxCell id="lg_ZGlqCutBqFKEGHfZC-80" value="q10" style="ellipse;whiteSpace=wrap;html=1;aspect=fixed;fontSize=22;align=center;" parent="1" vertex="1">
          <mxGeometry x="170" y="510" width="40" height="40" as="geometry" />
        </mxCell>
        <mxCell id="lg_ZGlqCutBqFKEGHfZC-81" value="" style="endArrow=classic;html=1;rounded=0;exitX=0.5;exitY=1;exitDx=0;exitDy=0;entryX=0;entryY=0.5;entryDx=0;entryDy=0;" parent="1" source="lg_ZGlqCutBqFKEGHfZC-1" target="lg_ZGlqCutBqFKEGHfZC-80" edge="1">
          <mxGeometry width="50" height="50" relative="1" as="geometry">
            <mxPoint x="135" y="160" as="sourcePoint" />
            <mxPoint x="180" y="413" as="targetPoint" />
          </mxGeometry>
        </mxCell>
        <mxCell id="lg_ZGlqCutBqFKEGHfZC-82" value="&quot;" style="edgeLabel;html=1;align=center;verticalAlign=middle;resizable=0;points=[];fontSize=18;" parent="lg_ZGlqCutBqFKEGHfZC-81" vertex="1" connectable="0">
          <mxGeometry x="0.1766" relative="1" as="geometry">
            <mxPoint x="-11" y="-14" as="offset" />
          </mxGeometry>
        </mxCell>
        <mxCell id="lg_ZGlqCutBqFKEGHfZC-83" value="" style="endArrow=classic;html=1;rounded=0;exitX=1;exitY=0.5;exitDx=0;exitDy=0;entryX=0;entryY=0.75;entryDx=0;entryDy=0;" parent="1" source="lg_ZGlqCutBqFKEGHfZC-80" target="lg_ZGlqCutBqFKEGHfZC-71" edge="1">
          <mxGeometry width="50" height="50" relative="1" as="geometry">
            <mxPoint x="300" y="500" as="sourcePoint" />
            <mxPoint x="410" y="530" as="targetPoint" />
          </mxGeometry>
        </mxCell>
        <mxCell id="lg_ZGlqCutBqFKEGHfZC-84" value="&quot;" style="edgeLabel;html=1;align=center;verticalAlign=middle;resizable=0;points=[];fontSize=18;" parent="lg_ZGlqCutBqFKEGHfZC-83" vertex="1" connectable="0">
          <mxGeometry x="0.1766" relative="1" as="geometry">
            <mxPoint x="-11" y="-14" as="offset" />
          </mxGeometry>
        </mxCell>
        <mxCell id="lg_ZGlqCutBqFKEGHfZC-85" value="" style="endArrow=classic;html=1;rounded=0;exitX=0;exitY=1;exitDx=0;exitDy=0;entryX=1;entryY=1;entryDx=0;entryDy=0;" parent="1" source="lg_ZGlqCutBqFKEGHfZC-80" target="lg_ZGlqCutBqFKEGHfZC-80" edge="1">
          <mxGeometry width="50" height="50" relative="1" as="geometry">
            <mxPoint x="150" y="570" as="sourcePoint" />
            <mxPoint x="220" y="550" as="targetPoint" />
            <Array as="points">
              <mxPoint x="170" y="560" />
              <mxPoint x="190" y="570" />
              <mxPoint x="210" y="560" />
            </Array>
          </mxGeometry>
        </mxCell>
        <mxCell id="lg_ZGlqCutBqFKEGHfZC-86" value="Семантическая процедура 4" style="rounded=0;whiteSpace=wrap;html=1;" parent="1" vertex="1">
          <mxGeometry x="560" y="530" width="120" height="60" as="geometry" />
        </mxCell>
        <mxCell id="lg_ZGlqCutBqFKEGHfZC-87" value="" style="endArrow=classic;html=1;rounded=0;exitX=1;exitY=0.5;exitDx=0;exitDy=0;entryX=0;entryY=0.5;entryDx=0;entryDy=0;" parent="1" source="lg_ZGlqCutBqFKEGHfZC-80" target="lg_ZGlqCutBqFKEGHfZC-86" edge="1">
          <mxGeometry width="50" height="50" relative="1" as="geometry">
            <mxPoint x="220" y="540" as="sourcePoint" />
            <mxPoint x="580" y="485" as="targetPoint" />
          </mxGeometry>
        </mxCell>
        <mxCell id="lg_ZGlqCutBqFKEGHfZC-88" value="$" style="edgeLabel;html=1;align=center;verticalAlign=middle;resizable=0;points=[];fontSize=18;" parent="lg_ZGlqCutBqFKEGHfZC-87" vertex="1" connectable="0">
          <mxGeometry x="0.1766" relative="1" as="geometry">
            <mxPoint x="-11" y="-14" as="offset" />
          </mxGeometry>
        </mxCell>
        <mxCell id="lg_ZGlqCutBqFKEGHfZC-89" value="q12" style="ellipse;whiteSpace=wrap;html=1;aspect=fixed;fontSize=22;align=center;" parent="1" vertex="1">
          <mxGeometry x="860" y="555" width="35" height="35" as="geometry" />
        </mxCell>
        <mxCell id="lg_ZGlqCutBqFKEGHfZC-91" value="" style="endArrow=classic;html=1;rounded=0;exitX=0.5;exitY=1;exitDx=0;exitDy=0;entryX=0;entryY=0.5;entryDx=0;entryDy=0;" parent="1" source="lg_ZGlqCutBqFKEGHfZC-89" target="lg_ZGlqCutBqFKEGHfZC-109" edge="1">
          <mxGeometry width="50" height="50" relative="1" as="geometry">
            <mxPoint x="950.63" y="685" as="sourcePoint" />
            <mxPoint x="1070.63" y="645" as="targetPoint" />
          </mxGeometry>
        </mxCell>
        <mxCell id="lg_ZGlqCutBqFKEGHfZC-92" value="Операция&lt;div style=&quot;font-size: 9px;&quot;&gt;разделитель&lt;/div&gt;" style="text;html=1;align=center;verticalAlign=middle;resizable=0;points=[];autosize=1;strokeColor=none;fillColor=none;fontSize=9;" parent="1" vertex="1">
          <mxGeometry x="960.63" y="590" width="80" height="40" as="geometry" />
        </mxCell>
        <mxCell id="lg_ZGlqCutBqFKEGHfZC-93" value="" style="endArrow=classic;html=1;rounded=0;exitX=1;exitY=0.5;exitDx=0;exitDy=0;entryX=0.5;entryY=1;entryDx=0;entryDy=0;" parent="1" source="lg_ZGlqCutBqFKEGHfZC-89" target="lg_ZGlqCutBqFKEGHfZC-94" edge="1">
          <mxGeometry width="50" height="50" relative="1" as="geometry">
            <mxPoint x="935.63" y="560" as="sourcePoint" />
            <mxPoint x="1005.63" y="445" as="targetPoint" />
          </mxGeometry>
        </mxCell>
        <mxCell id="lg_ZGlqCutBqFKEGHfZC-94" value="q13" style="ellipse;whiteSpace=wrap;html=1;aspect=fixed;fontSize=22;align=center;" parent="1" vertex="1">
          <mxGeometry x="990.63" y="505" width="35" height="35" as="geometry" />
        </mxCell>
        <mxCell id="lg_ZGlqCutBqFKEGHfZC-95" value="ц" style="text;html=1;align=center;verticalAlign=middle;resizable=0;points=[];autosize=1;strokeColor=none;fillColor=none;" parent="1" vertex="1">
          <mxGeometry x="940.63" y="550" width="30" height="30" as="geometry" />
        </mxCell>
        <mxCell id="lg_ZGlqCutBqFKEGHfZC-96" value="" style="endArrow=classic;html=1;rounded=0;exitX=1;exitY=0.5;exitDx=0;exitDy=0;entryX=0;entryY=0.5;entryDx=0;entryDy=0;" parent="1" source="lg_ZGlqCutBqFKEGHfZC-94" target="lg_ZGlqCutBqFKEGHfZC-98" edge="1">
          <mxGeometry width="50" height="50" relative="1" as="geometry">
            <mxPoint x="935.63" y="510" as="sourcePoint" />
            <mxPoint x="870.63" y="510" as="targetPoint" />
          </mxGeometry>
        </mxCell>
        <mxCell id="lg_ZGlqCutBqFKEGHfZC-97" value="Операция,&lt;div style=&quot;font-size: 7px;&quot;&gt;разделитель&lt;/div&gt;" style="text;html=1;align=center;verticalAlign=middle;resizable=0;points=[];autosize=1;strokeColor=none;fillColor=none;fontSize=7;" parent="1" vertex="1">
          <mxGeometry x="1020.63" y="495" width="60" height="30" as="geometry" />
        </mxCell>
        <mxCell id="lg_ZGlqCutBqFKEGHfZC-98" value="Семантическая процедура 2" style="rounded=0;whiteSpace=wrap;html=1;" parent="1" vertex="1">
          <mxGeometry x="1080.63" y="490" width="120" height="60" as="geometry" />
        </mxCell>
        <mxCell id="lg_ZGlqCutBqFKEGHfZC-99" value="" style="endArrow=classic;html=1;rounded=0;exitX=0;exitY=0;exitDx=0;exitDy=0;entryX=1;entryY=0;entryDx=0;entryDy=0;" parent="1" source="lg_ZGlqCutBqFKEGHfZC-89" target="lg_ZGlqCutBqFKEGHfZC-89" edge="1">
          <mxGeometry width="50" height="50" relative="1" as="geometry">
            <mxPoint x="830.63" y="550" as="sourcePoint" />
            <mxPoint x="890.63" y="550" as="targetPoint" />
            <Array as="points">
              <mxPoint x="850" y="530" />
              <mxPoint x="860" y="510" />
              <mxPoint x="890" y="500" />
              <mxPoint x="910" y="520" />
            </Array>
          </mxGeometry>
        </mxCell>
        <mxCell id="lg_ZGlqCutBqFKEGHfZC-100" value="б,_" style="text;html=1;align=center;verticalAlign=middle;resizable=0;points=[];autosize=1;strokeColor=none;fillColor=none;" parent="1" vertex="1">
          <mxGeometry x="855" y="480" width="40" height="30" as="geometry" />
        </mxCell>
        <mxCell id="lg_ZGlqCutBqFKEGHfZC-101" value="" style="endArrow=classic;html=1;rounded=0;exitX=0;exitY=1;exitDx=0;exitDy=0;entryX=0;entryY=0;entryDx=0;entryDy=0;" parent="1" source="lg_ZGlqCutBqFKEGHfZC-94" target="lg_ZGlqCutBqFKEGHfZC-94" edge="1">
          <mxGeometry width="50" height="50" relative="1" as="geometry">
            <mxPoint x="904.63" y="554" as="sourcePoint" />
            <mxPoint x="926.63" y="554" as="targetPoint" />
            <Array as="points">
              <mxPoint x="960.63" y="535" />
              <mxPoint x="950.63" y="515" />
              <mxPoint x="960.63" y="495" />
            </Array>
          </mxGeometry>
        </mxCell>
        <mxCell id="lg_ZGlqCutBqFKEGHfZC-102" value="б,ц,_" style="text;html=1;align=center;verticalAlign=middle;resizable=0;points=[];autosize=1;strokeColor=none;fillColor=none;" parent="1" vertex="1">
          <mxGeometry x="915.63" y="503" width="50" height="30" as="geometry" />
        </mxCell>
        <mxCell id="lg_ZGlqCutBqFKEGHfZC-104" value="q11" style="ellipse;whiteSpace=wrap;html=1;aspect=fixed;fontSize=22;align=center;" parent="1" vertex="1">
          <mxGeometry x="750" y="545" width="30" height="30" as="geometry" />
        </mxCell>
        <mxCell id="lg_ZGlqCutBqFKEGHfZC-105" value="" style="endArrow=classic;html=1;rounded=0;exitX=1;exitY=0.5;exitDx=0;exitDy=0;entryX=0;entryY=0.5;entryDx=0;entryDy=0;" parent="1" source="lg_ZGlqCutBqFKEGHfZC-104" target="lg_ZGlqCutBqFKEGHfZC-89" edge="1">
          <mxGeometry width="50" height="50" relative="1" as="geometry">
            <mxPoint x="720.63" y="640" as="sourcePoint" />
            <mxPoint x="890.63" y="640" as="targetPoint" />
          </mxGeometry>
        </mxCell>
        <mxCell id="lg_ZGlqCutBqFKEGHfZC-106" value="б" style="edgeLabel;html=1;align=center;verticalAlign=middle;resizable=0;points=[];fontSize=18;" parent="lg_ZGlqCutBqFKEGHfZC-105" vertex="1" connectable="0">
          <mxGeometry x="0.1766" relative="1" as="geometry">
            <mxPoint x="-10" y="-15" as="offset" />
          </mxGeometry>
        </mxCell>
        <mxCell id="lg_ZGlqCutBqFKEGHfZC-107" value="" style="endArrow=classic;html=1;rounded=0;exitX=1;exitY=0.5;exitDx=0;exitDy=0;entryX=0;entryY=0.5;entryDx=0;entryDy=0;" parent="1" source="lg_ZGlqCutBqFKEGHfZC-86" target="lg_ZGlqCutBqFKEGHfZC-104" edge="1">
          <mxGeometry width="50" height="50" relative="1" as="geometry">
            <mxPoint x="770" y="580" as="sourcePoint" />
            <mxPoint x="891" y="640" as="targetPoint" />
          </mxGeometry>
        </mxCell>
        <mxCell id="ZuOIpNTlUmzWjdwV7ESw-1" value="." style="edgeLabel;html=1;align=center;verticalAlign=middle;resizable=0;points=[];fontSize=18;" vertex="1" connectable="0" parent="lg_ZGlqCutBqFKEGHfZC-107">
          <mxGeometry x="-0.0724" y="-1" relative="1" as="geometry">
            <mxPoint x="508" y="-58" as="offset" />
          </mxGeometry>
        </mxCell>
        <mxCell id="lg_ZGlqCutBqFKEGHfZC-109" value="Семантическая процедура 1" style="rounded=0;whiteSpace=wrap;html=1;" parent="1" vertex="1">
          <mxGeometry x="1080.63" y="595" width="120" height="60" as="geometry" />
        </mxCell>
        <mxCell id="lg_ZGlqCutBqFKEGHfZC-110" value="" style="endArrow=classic;html=1;rounded=0;exitX=1;exitY=0.5;exitDx=0;exitDy=0;" parent="1" source="lg_ZGlqCutBqFKEGHfZC-98" edge="1">
          <mxGeometry width="50" height="50" relative="1" as="geometry">
            <mxPoint x="1025.63" y="960" as="sourcePoint" />
            <mxPoint x="1240" y="630" as="targetPoint" />
            <Array as="points">
              <mxPoint x="1240" y="520" />
            </Array>
          </mxGeometry>
        </mxCell>
        <mxCell id="lg_ZGlqCutBqFKEGHfZC-111" value="" style="endArrow=classic;html=1;rounded=0;exitX=1;exitY=0.5;exitDx=0;exitDy=0;entryX=0;entryY=0.5;entryDx=0;entryDy=0;" parent="1" source="lg_ZGlqCutBqFKEGHfZC-109" target="lg_ZGlqCutBqFKEGHfZC-80" edge="1">
          <mxGeometry width="50" height="50" relative="1" as="geometry">
            <mxPoint x="1211" y="530" as="sourcePoint" />
            <mxPoint x="120" y="680" as="targetPoint" />
            <Array as="points">
              <mxPoint x="1240" y="625" />
              <mxPoint x="1240" y="680" />
              <mxPoint x="170" y="680" />
            </Array>
          </mxGeometry>
        </mxCell>
        <mxCell id="lg_ZGlqCutBqFKEGHfZC-113" value="Семантическая процедура 5" style="rounded=0;whiteSpace=wrap;html=1;" parent="1" vertex="1">
          <mxGeometry x="570" y="710" width="120" height="60" as="geometry" />
        </mxCell>
        <mxCell id="lg_ZGlqCutBqFKEGHfZC-114" value="" style="endArrow=classic;html=1;rounded=0;exitX=0;exitY=1;exitDx=0;exitDy=0;entryX=0;entryY=0.5;entryDx=0;entryDy=0;" parent="1" source="lg_ZGlqCutBqFKEGHfZC-1" target="lg_ZGlqCutBqFKEGHfZC-113" edge="1">
          <mxGeometry width="50" height="50" relative="1" as="geometry">
            <mxPoint x="135" y="160" as="sourcePoint" />
            <mxPoint x="114" y="540" as="targetPoint" />
            <Array as="points">
              <mxPoint x="120" y="740" />
            </Array>
          </mxGeometry>
        </mxCell>
        <mxCell id="lg_ZGlqCutBqFKEGHfZC-115" value="Односимвольный&lt;div&gt;&amp;nbsp;разделитель&lt;/div&gt;" style="edgeLabel;html=1;align=center;verticalAlign=middle;resizable=0;points=[];fontSize=18;" parent="lg_ZGlqCutBqFKEGHfZC-114" vertex="1" connectable="0">
          <mxGeometry x="0.1766" relative="1" as="geometry">
            <mxPoint x="-20" y="-30" as="offset" />
          </mxGeometry>
        </mxCell>
        <mxCell id="lg_ZGlqCutBqFKEGHfZC-117" value="" style="endArrow=classic;html=1;rounded=0;exitX=1;exitY=0.5;exitDx=0;exitDy=0;" parent="1" source="lg_ZGlqCutBqFKEGHfZC-113" edge="1">
          <mxGeometry width="50" height="50" relative="1" as="geometry">
            <mxPoint x="730" y="750" as="sourcePoint" />
            <mxPoint x="129" y="119" as="targetPoint" />
            <Array as="points">
              <mxPoint x="1260" y="740" />
              <mxPoint x="1250" y="-140" />
              <mxPoint x="120" y="-130" />
            </Array>
          </mxGeometry>
        </mxCell>
        <mxCell id="lg_ZGlqCutBqFKEGHfZC-118" value="" style="endArrow=classic;html=1;rounded=0;exitX=0;exitY=1;exitDx=0;exitDy=0;entryX=0;entryY=0.5;entryDx=0;entryDy=0;" parent="1" source="lg_ZGlqCutBqFKEGHfZC-1" target="lg_ZGlqCutBqFKEGHfZC-122" edge="1">
          <mxGeometry width="50" height="50" relative="1" as="geometry">
            <mxPoint x="54" y="155" as="sourcePoint" />
            <mxPoint x="50" y="840" as="targetPoint" />
            <Array as="points">
              <mxPoint x="40" y="146" />
              <mxPoint x="40" y="830" />
            </Array>
          </mxGeometry>
        </mxCell>
        <mxCell id="lg_ZGlqCutBqFKEGHfZC-119" value="однолитерная&amp;nbsp;&lt;div&gt;операция&lt;/div&gt;" style="edgeLabel;html=1;align=center;verticalAlign=middle;resizable=0;points=[];fontSize=18;" parent="lg_ZGlqCutBqFKEGHfZC-118" vertex="1" connectable="0">
          <mxGeometry x="0.1766" relative="1" as="geometry">
            <mxPoint x="10" y="-39" as="offset" />
          </mxGeometry>
        </mxCell>
        <mxCell id="lg_ZGlqCutBqFKEGHfZC-120" value="Семантическая процедура 6" style="rounded=0;whiteSpace=wrap;html=1;" parent="1" vertex="1">
          <mxGeometry x="570" y="800" width="120" height="60" as="geometry" />
        </mxCell>
        <mxCell id="lg_ZGlqCutBqFKEGHfZC-121" value="" style="endArrow=classic;html=1;rounded=0;exitX=1;exitY=0.5;exitDx=0;exitDy=0;entryX=0.5;entryY=0;entryDx=0;entryDy=0;" parent="1" source="lg_ZGlqCutBqFKEGHfZC-120" target="lg_ZGlqCutBqFKEGHfZC-1" edge="1">
          <mxGeometry width="50" height="50" relative="1" as="geometry">
            <mxPoint x="690" y="830" as="sourcePoint" />
            <mxPoint x="120" y="-130" as="targetPoint" />
            <Array as="points">
              <mxPoint x="1260" y="820" />
              <mxPoint x="1250" y="-140" />
              <mxPoint x="125" y="-130" />
            </Array>
          </mxGeometry>
        </mxCell>
        <mxCell id="lg_ZGlqCutBqFKEGHfZC-122" value="q14" style="ellipse;whiteSpace=wrap;html=1;aspect=fixed;fontSize=22;align=center;" parent="1" vertex="1">
          <mxGeometry x="290" y="812.5" width="35" height="35" as="geometry" />
        </mxCell>
        <mxCell id="lg_ZGlqCutBqFKEGHfZC-125" value="" style="endArrow=classic;html=1;rounded=0;entryX=0;entryY=1;entryDx=0;entryDy=0;exitX=1;exitY=1;exitDx=0;exitDy=0;" parent="1" source="lg_ZGlqCutBqFKEGHfZC-122" target="lg_ZGlqCutBqFKEGHfZC-122" edge="1">
          <mxGeometry width="50" height="50" relative="1" as="geometry">
            <mxPoint x="350" y="910" as="sourcePoint" />
            <mxPoint x="330" y="890" as="targetPoint" />
            <Array as="points">
              <mxPoint x="330" y="910" />
              <mxPoint x="300" y="930" />
              <mxPoint x="270" y="910" />
            </Array>
          </mxGeometry>
        </mxCell>
        <mxCell id="lg_ZGlqCutBqFKEGHfZC-126" value="&lt;span style=&quot;font-size: 18px;&quot;&gt;однолитерная&amp;nbsp;&lt;/span&gt;&lt;div style=&quot;font-size: 18px;&quot;&gt;операция&lt;/div&gt;" style="edgeLabel;html=1;align=center;verticalAlign=middle;resizable=0;points=[];" parent="lg_ZGlqCutBqFKEGHfZC-125" vertex="1" connectable="0">
          <mxGeometry x="0.2304" y="-3" relative="1" as="geometry">
            <mxPoint x="-70" y="-23" as="offset" />
          </mxGeometry>
        </mxCell>
        <mxCell id="lg_ZGlqCutBqFKEGHfZC-127" value="" style="endArrow=classic;html=1;rounded=0;exitX=1;exitY=0.5;exitDx=0;exitDy=0;entryX=0;entryY=0.5;entryDx=0;entryDy=0;" parent="1" source="lg_ZGlqCutBqFKEGHfZC-122" target="lg_ZGlqCutBqFKEGHfZC-120" edge="1">
          <mxGeometry width="50" height="50" relative="1" as="geometry">
            <mxPoint x="360" y="840" as="sourcePoint" />
            <mxPoint x="410" y="790" as="targetPoint" />
          </mxGeometry>
        </mxCell>
        <mxCell id="lg_ZGlqCutBqFKEGHfZC-128" value="&lt;div&gt;&lt;br&gt;&lt;/div&gt;&lt;div&gt;&lt;br&gt;&lt;/div&gt;" style="text;html=1;align=center;verticalAlign=middle;resizable=0;points=[];autosize=1;strokeColor=none;fillColor=none;" parent="1" vertex="1">
          <mxGeometry x="460" y="803" width="20" height="40" as="geometry" />
        </mxCell>
        <mxCell id="lg_ZGlqCutBqFKEGHfZC-129" value="q15" style="ellipse;whiteSpace=wrap;html=1;aspect=fixed;fontSize=22;align=center;" parent="1" vertex="1">
          <mxGeometry x="277.5" y="1090" width="35" height="35" as="geometry" />
        </mxCell>
        <mxCell id="lg_ZGlqCutBqFKEGHfZC-130" value="" style="endArrow=classic;html=1;rounded=0;entryX=0;entryY=0.5;entryDx=0;entryDy=0;exitX=0;exitY=0;exitDx=0;exitDy=0;" parent="1" source="lg_ZGlqCutBqFKEGHfZC-1" target="lg_ZGlqCutBqFKEGHfZC-129" edge="1">
          <mxGeometry width="50" height="50" relative="1" as="geometry">
            <mxPoint x="-30" y="100" as="sourcePoint" />
            <mxPoint x="30" y="1010" as="targetPoint" />
            <Array as="points">
              <mxPoint x="-20" y="124" />
              <mxPoint x="-20" y="1108" />
            </Array>
          </mxGeometry>
        </mxCell>
        <mxCell id="lg_ZGlqCutBqFKEGHfZC-131" value="/" style="text;html=1;align=center;verticalAlign=middle;resizable=0;points=[];autosize=1;strokeColor=none;fillColor=none;fontSize=25;" parent="1" vertex="1">
          <mxGeometry x="85" y="1073" width="30" height="40" as="geometry" />
        </mxCell>
        <mxCell id="lg_ZGlqCutBqFKEGHfZC-132" value="q16" style="ellipse;whiteSpace=wrap;html=1;aspect=fixed;fontSize=22;align=center;" parent="1" vertex="1">
          <mxGeometry x="465" y="1090" width="35" height="35" as="geometry" />
        </mxCell>
        <mxCell id="lg_ZGlqCutBqFKEGHfZC-133" value="" style="endArrow=classic;html=1;rounded=0;exitX=1;exitY=0.5;exitDx=0;exitDy=0;entryX=0;entryY=0.5;entryDx=0;entryDy=0;" parent="1" source="lg_ZGlqCutBqFKEGHfZC-129" target="lg_ZGlqCutBqFKEGHfZC-132" edge="1">
          <mxGeometry width="50" height="50" relative="1" as="geometry">
            <mxPoint x="370" y="1100" as="sourcePoint" />
            <mxPoint x="420" y="1050" as="targetPoint" />
          </mxGeometry>
        </mxCell>
        <mxCell id="lg_ZGlqCutBqFKEGHfZC-134" value="*" style="text;html=1;align=center;verticalAlign=middle;resizable=0;points=[];autosize=1;strokeColor=none;fillColor=none;fontSize=21;" parent="1" vertex="1">
          <mxGeometry x="385" y="1073" width="30" height="40" as="geometry" />
        </mxCell>
        <mxCell id="lg_ZGlqCutBqFKEGHfZC-135" value="q17" style="ellipse;whiteSpace=wrap;html=1;aspect=fixed;fontSize=22;align=center;" parent="1" vertex="1">
          <mxGeometry x="465" y="1160" width="35" height="35" as="geometry" />
        </mxCell>
        <mxCell id="lg_ZGlqCutBqFKEGHfZC-136" value="" style="endArrow=classic;html=1;rounded=0;exitX=0.5;exitY=1;exitDx=0;exitDy=0;entryX=0;entryY=0.5;entryDx=0;entryDy=0;" parent="1" source="lg_ZGlqCutBqFKEGHfZC-129" target="lg_ZGlqCutBqFKEGHfZC-135" edge="1">
          <mxGeometry width="50" height="50" relative="1" as="geometry">
            <mxPoint x="323" y="1118" as="sourcePoint" />
            <mxPoint x="475" y="1118" as="targetPoint" />
          </mxGeometry>
        </mxCell>
        <mxCell id="lg_ZGlqCutBqFKEGHfZC-137" value="/" style="edgeLabel;html=1;align=center;verticalAlign=middle;resizable=0;points=[];fontSize=24;" parent="lg_ZGlqCutBqFKEGHfZC-136" vertex="1" connectable="0">
          <mxGeometry x="0.1882" y="3" relative="1" as="geometry">
            <mxPoint as="offset" />
          </mxGeometry>
        </mxCell>
        <mxCell id="lg_ZGlqCutBqFKEGHfZC-140" value="" style="endArrow=classic;html=1;rounded=0;exitX=0.5;exitY=1;exitDx=0;exitDy=0;entryX=1;entryY=0.5;entryDx=0;entryDy=0;" parent="1" source="lg_ZGlqCutBqFKEGHfZC-135" target="lg_ZGlqCutBqFKEGHfZC-135" edge="1">
          <mxGeometry width="50" height="50" relative="1" as="geometry">
            <mxPoint x="490" y="1230" as="sourcePoint" />
            <mxPoint x="640" y="1232.5" as="targetPoint" />
            <Array as="points">
              <mxPoint x="480" y="1240" />
              <mxPoint x="520" y="1260" />
              <mxPoint x="550" y="1240" />
              <mxPoint x="540" y="1200" />
            </Array>
          </mxGeometry>
        </mxCell>
        <mxCell id="lg_ZGlqCutBqFKEGHfZC-142" value="" style="endArrow=classic;html=1;rounded=0;exitX=1;exitY=0.5;exitDx=0;exitDy=0;entryX=0;entryY=0.5;entryDx=0;entryDy=0;" parent="1" source="lg_ZGlqCutBqFKEGHfZC-135" target="lg_ZGlqCutBqFKEGHfZC-144" edge="1">
          <mxGeometry width="50" height="50" relative="1" as="geometry">
            <mxPoint x="590" y="1107" as="sourcePoint" />
            <mxPoint x="670" y="1177.5" as="targetPoint" />
          </mxGeometry>
        </mxCell>
        <mxCell id="lg_ZGlqCutBqFKEGHfZC-143" value="Конец строки,&amp;nbsp;&lt;div&gt;конце файла&lt;/div&gt;" style="text;html=1;align=center;verticalAlign=middle;resizable=0;points=[];autosize=1;strokeColor=none;fillColor=none;" parent="1" vertex="1">
          <mxGeometry x="560" y="1169" width="100" height="40" as="geometry" />
        </mxCell>
        <mxCell id="lg_ZGlqCutBqFKEGHfZC-144" value="Семантическая процедура 7" style="rounded=0;whiteSpace=wrap;html=1;" parent="1" vertex="1">
          <mxGeometry x="720" y="1147.5" width="120" height="60" as="geometry" />
        </mxCell>
        <mxCell id="lg_ZGlqCutBqFKEGHfZC-145" value="q18" style="ellipse;whiteSpace=wrap;html=1;aspect=fixed;fontSize=22;align=center;" parent="1" vertex="1">
          <mxGeometry x="655" y="1040" width="35" height="35" as="geometry" />
        </mxCell>
        <mxCell id="lg_ZGlqCutBqFKEGHfZC-146" value="" style="endArrow=classic;html=1;rounded=0;exitX=1;exitY=0.5;exitDx=0;exitDy=0;entryX=0;entryY=0.5;entryDx=0;entryDy=0;" parent="1" source="lg_ZGlqCutBqFKEGHfZC-132" target="lg_ZGlqCutBqFKEGHfZC-145" edge="1">
          <mxGeometry width="50" height="50" relative="1" as="geometry">
            <mxPoint x="560" y="1107.13" as="sourcePoint" />
            <mxPoint x="712" y="1107.13" as="targetPoint" />
          </mxGeometry>
        </mxCell>
        <mxCell id="lg_ZGlqCutBqFKEGHfZC-147" value="*" style="text;html=1;align=center;verticalAlign=middle;resizable=0;points=[];autosize=1;strokeColor=none;fillColor=none;fontSize=20;" parent="1" vertex="1">
          <mxGeometry x="565" y="1053" width="30" height="40" as="geometry" />
        </mxCell>
        <mxCell id="lg_ZGlqCutBqFKEGHfZC-148" value="" style="endArrow=classic;html=1;rounded=0;exitX=0.5;exitY=1;exitDx=0;exitDy=0;entryX=0.5;entryY=1;entryDx=0;entryDy=0;" parent="1" source="lg_ZGlqCutBqFKEGHfZC-145" target="lg_ZGlqCutBqFKEGHfZC-132" edge="1">
          <mxGeometry width="50" height="50" relative="1" as="geometry">
            <mxPoint x="510" y="1118" as="sourcePoint" />
            <mxPoint x="665" y="1068" as="targetPoint" />
          </mxGeometry>
        </mxCell>
        <mxCell id="lg_ZGlqCutBqFKEGHfZC-149" value="" style="endArrow=classic;html=1;rounded=0;entryX=0;entryY=0.5;entryDx=0;entryDy=0;exitX=1;exitY=0.5;exitDx=0;exitDy=0;" parent="1" source="lg_ZGlqCutBqFKEGHfZC-145" target="lg_ZGlqCutBqFKEGHfZC-144" edge="1">
          <mxGeometry width="50" height="50" relative="1" as="geometry">
            <mxPoint x="740" y="1000" as="sourcePoint" />
            <mxPoint x="794.63" y="1053" as="targetPoint" />
          </mxGeometry>
        </mxCell>
        <mxCell id="lg_ZGlqCutBqFKEGHfZC-150" value="/" style="edgeLabel;html=1;align=center;verticalAlign=middle;resizable=0;points=[];fontSize=20;" parent="lg_ZGlqCutBqFKEGHfZC-149" vertex="1" connectable="0">
          <mxGeometry x="-0.2673" y="2" relative="1" as="geometry">
            <mxPoint as="offset" />
          </mxGeometry>
        </mxCell>
        <mxCell id="lg_ZGlqCutBqFKEGHfZC-151" value="" style="endArrow=classic;html=1;rounded=0;entryX=0;entryY=0;entryDx=0;entryDy=0;exitX=1;exitY=0;exitDx=0;exitDy=0;" parent="1" source="lg_ZGlqCutBqFKEGHfZC-132" target="lg_ZGlqCutBqFKEGHfZC-132" edge="1">
          <mxGeometry width="50" height="50" relative="1" as="geometry">
            <mxPoint x="500" y="1060" as="sourcePoint" />
            <mxPoint x="450" y="1040" as="targetPoint" />
            <Array as="points">
              <mxPoint x="490" y="1050" />
              <mxPoint x="460" y="1040" />
              <mxPoint x="440" y="1060" />
            </Array>
          </mxGeometry>
        </mxCell>
        <mxCell id="lg_ZGlqCutBqFKEGHfZC-152" value="q19" style="ellipse;whiteSpace=wrap;html=1;aspect=fixed;fontSize=22;align=center;" parent="1" vertex="1">
          <mxGeometry x="260" y="1209" width="35" height="35" as="geometry" />
        </mxCell>
        <mxCell id="lg_ZGlqCutBqFKEGHfZC-153" value="" style="endArrow=classic;html=1;rounded=0;entryX=0;entryY=0.5;entryDx=0;entryDy=0;" parent="1" target="lg_ZGlqCutBqFKEGHfZC-152" edge="1">
          <mxGeometry width="50" height="50" relative="1" as="geometry">
            <mxPoint x="-20" y="1110" as="sourcePoint" />
            <mxPoint x="120" y="1170" as="targetPoint" />
          </mxGeometry>
        </mxCell>
        <mxCell id="lg_ZGlqCutBqFKEGHfZC-154" value="#" style="text;html=1;align=center;verticalAlign=middle;resizable=0;points=[];autosize=1;strokeColor=none;fillColor=none;fontSize=20;" parent="1" vertex="1">
          <mxGeometry x="135" y="1153" width="30" height="40" as="geometry" />
        </mxCell>
        <mxCell id="lg_ZGlqCutBqFKEGHfZC-155" value="" style="endArrow=classic;html=1;rounded=0;exitX=1;exitY=0.5;exitDx=0;exitDy=0;entryX=0;entryY=1;entryDx=0;entryDy=0;" parent="1" source="lg_ZGlqCutBqFKEGHfZC-152" target="lg_ZGlqCutBqFKEGHfZC-135" edge="1">
          <mxGeometry width="50" height="50" relative="1" as="geometry">
            <mxPoint x="390" y="1310" as="sourcePoint" />
            <mxPoint x="440" y="1260" as="targetPoint" />
          </mxGeometry>
        </mxCell>
        <mxCell id="lg_ZGlqCutBqFKEGHfZC-156" value="" style="endArrow=classic;html=1;rounded=0;exitX=1;exitY=0.5;exitDx=0;exitDy=0;" parent="1" source="lg_ZGlqCutBqFKEGHfZC-144" edge="1">
          <mxGeometry width="50" height="50" relative="1" as="geometry">
            <mxPoint x="1050" y="1110" as="sourcePoint" />
            <mxPoint x="1260" y="820" as="targetPoint" />
            <Array as="points">
              <mxPoint x="1260" y="1170" />
            </Array>
          </mxGeometry>
        </mxCell>
        <mxCell id="lg_ZGlqCutBqFKEGHfZC-157" value="z" style="ellipse;whiteSpace=wrap;html=1;aspect=fixed;fontSize=22;align=center;strokeWidth=6;" parent="1" vertex="1">
          <mxGeometry x="1020.63" y="1380" width="35" height="35" as="geometry" />
        </mxCell>
        <mxCell id="lg_ZGlqCutBqFKEGHfZC-158" value="" style="endArrow=classic;html=1;rounded=0;exitX=1;exitY=0.5;exitDx=0;exitDy=0;entryX=0.5;entryY=0;entryDx=0;entryDy=0;" parent="1" source="lg_ZGlqCutBqFKEGHfZC-144" target="lg_ZGlqCutBqFKEGHfZC-157" edge="1">
          <mxGeometry width="50" height="50" relative="1" as="geometry">
            <mxPoint x="970" y="1270" as="sourcePoint" />
            <mxPoint x="1020" y="1220" as="targetPoint" />
          </mxGeometry>
        </mxCell>
        <mxCell id="lg_ZGlqCutBqFKEGHfZC-159" value="Конец файла" style="text;html=1;align=center;verticalAlign=middle;resizable=0;points=[];autosize=1;strokeColor=none;fillColor=none;fontSize=16;" parent="1" vertex="1">
          <mxGeometry x="940.63" y="1268" width="120" height="30" as="geometry" />
        </mxCell>
        <mxCell id="lg_ZGlqCutBqFKEGHfZC-160" value="" style="endArrow=classic;html=1;rounded=0;entryX=0;entryY=0.5;entryDx=0;entryDy=0;exitX=0.5;exitY=0;exitDx=0;exitDy=0;" parent="1" source="lg_ZGlqCutBqFKEGHfZC-1" target="lg_ZGlqCutBqFKEGHfZC-157" edge="1">
          <mxGeometry width="50" height="50" relative="1" as="geometry">
            <mxPoint x="-50" y="110" as="sourcePoint" />
            <mxPoint x="1048" y="1390" as="targetPoint" />
            <Array as="points">
              <mxPoint x="-60" y="120" />
              <mxPoint x="-50" y="1390" />
            </Array>
          </mxGeometry>
        </mxCell>
        <mxCell id="lg_ZGlqCutBqFKEGHfZC-161" value="конец файла" style="text;html=1;align=center;verticalAlign=middle;resizable=0;points=[];autosize=1;strokeColor=none;fillColor=none;fontSize=16;" parent="1" vertex="1">
          <mxGeometry x="-80" y="98" width="120" height="30" as="geometry" />
        </mxCell>
        <mxCell id="lg_ZGlqCutBqFKEGHfZC-164" value="разделитель" style="text;html=1;align=center;verticalAlign=middle;resizable=0;points=[];autosize=1;strokeColor=none;fillColor=none;" parent="1" vertex="1">
          <mxGeometry x="385" y="828" width="90" height="30" as="geometry" />
        </mxCell>
        <mxCell id="lg_ZGlqCutBqFKEGHfZC-165" value="" style="endArrow=classic;html=1;rounded=0;exitX=1;exitY=0.5;exitDx=0;exitDy=0;entryX=0;entryY=0.5;entryDx=0;entryDy=0;" parent="1" source="lg_ZGlqCutBqFKEGHfZC-122" target="lg_ZGlqCutBqFKEGHfZC-113" edge="1">
          <mxGeometry width="50" height="50" relative="1" as="geometry">
            <mxPoint x="335" y="840" as="sourcePoint" />
            <mxPoint x="580" y="840" as="targetPoint" />
          </mxGeometry>
        </mxCell>
        <mxCell id="lg_ZGlqCutBqFKEGHfZC-166" value="?" style="text;html=1;align=center;verticalAlign=middle;resizable=0;points=[];autosize=1;strokeColor=none;fillColor=none;fontSize=17;" parent="1" vertex="1">
          <mxGeometry x="395" y="768" width="30" height="30" as="geometry" />
        </mxCell>
        <mxCell id="lg_ZGlqCutBqFKEGHfZC-167" value="q20" style="ellipse;whiteSpace=wrap;html=1;aspect=fixed;fontSize=22;align=center;" parent="1" vertex="1">
          <mxGeometry x="260" y="722.5" width="35" height="35" as="geometry" />
        </mxCell>
        <mxCell id="lg_ZGlqCutBqFKEGHfZC-207" value="q28" style="ellipse;whiteSpace=wrap;html=1;aspect=fixed;fontSize=22;align=center;" parent="1" vertex="1">
          <mxGeometry x="-200" y="132.5" width="35" height="35" as="geometry" />
        </mxCell>
        <mxCell id="lg_ZGlqCutBqFKEGHfZC-208" value="" style="endArrow=classic;html=1;rounded=0;exitX=0;exitY=0.5;exitDx=0;exitDy=0;entryX=1;entryY=0;entryDx=0;entryDy=0;fontSize=24;" parent="1" source="lg_ZGlqCutBqFKEGHfZC-1" target="lg_ZGlqCutBqFKEGHfZC-207" edge="1">
          <mxGeometry width="50" height="50" relative="1" as="geometry">
            <mxPoint x="-260" y="330" as="sourcePoint" />
            <mxPoint x="-210" y="280" as="targetPoint" />
          </mxGeometry>
        </mxCell>
        <mxCell id="lg_ZGlqCutBqFKEGHfZC-209" value="," style="edgeLabel;html=1;align=center;verticalAlign=middle;resizable=0;points=[];" parent="lg_ZGlqCutBqFKEGHfZC-208" vertex="1" connectable="0">
          <mxGeometry x="0.3529" y="3" relative="1" as="geometry">
            <mxPoint as="offset" />
          </mxGeometry>
        </mxCell>
        <mxCell id="lg_ZGlqCutBqFKEGHfZC-210" value="?" style="edgeLabel;html=1;align=center;verticalAlign=middle;resizable=0;points=[];fontSize=22;" parent="lg_ZGlqCutBqFKEGHfZC-208" vertex="1" connectable="0">
          <mxGeometry x="0.359" y="2" relative="1" as="geometry">
            <mxPoint as="offset" />
          </mxGeometry>
        </mxCell>
        <mxCell id="lg_ZGlqCutBqFKEGHfZC-211" value="" style="endArrow=classic;html=1;rounded=0;exitX=1;exitY=1;exitDx=0;exitDy=0;entryX=0;entryY=0.5;entryDx=0;entryDy=0;" parent="1" source="lg_ZGlqCutBqFKEGHfZC-207" target="lg_ZGlqCutBqFKEGHfZC-113" edge="1">
          <mxGeometry width="50" height="50" relative="1" as="geometry">
            <mxPoint x="-230" y="550" as="sourcePoint" />
            <mxPoint x="-180" y="500" as="targetPoint" />
            <Array as="points">
              <mxPoint x="-170" y="630" />
              <mxPoint x="320" y="630" />
              <mxPoint x="320" y="740" />
              <mxPoint x="460" y="740" />
            </Array>
          </mxGeometry>
        </mxCell>
        <mxCell id="lg_ZGlqCutBqFKEGHfZC-212" value="&amp;gt;" style="edgeLabel;html=1;align=center;verticalAlign=middle;resizable=0;points=[];fontSize=25;" parent="lg_ZGlqCutBqFKEGHfZC-211" vertex="1" connectable="0">
          <mxGeometry x="-0.6852" y="2" relative="1" as="geometry">
            <mxPoint as="offset" />
          </mxGeometry>
        </mxCell>
        <mxCell id="lg_ZGlqCutBqFKEGHfZC-217" value="" style="endArrow=classic;html=1;rounded=0;exitX=1;exitY=0;exitDx=0;exitDy=0;entryX=0;entryY=0.25;entryDx=0;entryDy=0;" parent="1" source="lg_ZGlqCutBqFKEGHfZC-32" target="lg_ZGlqCutBqFKEGHfZC-42" edge="1">
          <mxGeometry width="50" height="50" relative="1" as="geometry">
            <mxPoint x="460" y="285" as="sourcePoint" />
            <mxPoint x="580" y="285" as="targetPoint" />
            <Array as="points">
              <mxPoint x="390" y="190" />
              <mxPoint x="490" y="190" />
            </Array>
          </mxGeometry>
        </mxCell>
        <mxCell id="lg_ZGlqCutBqFKEGHfZC-218" value="" style="endArrow=classic;html=1;rounded=0;exitX=1;exitY=0;exitDx=0;exitDy=0;entryX=0;entryY=0.5;entryDx=0;entryDy=0;" parent="1" source="lg_ZGlqCutBqFKEGHfZC-129" target="lg_ZGlqCutBqFKEGHfZC-120" edge="1">
          <mxGeometry width="50" height="50" relative="1" as="geometry">
            <mxPoint x="328" y="1010" as="sourcePoint" />
            <mxPoint x="480" y="1010" as="targetPoint" />
          </mxGeometry>
        </mxCell>
        <mxCell id="lg_ZGlqCutBqFKEGHfZC-220" value="" style="endArrow=classic;html=1;rounded=0;exitX=0.5;exitY=1;exitDx=0;exitDy=0;entryX=1;entryY=1;entryDx=0;entryDy=0;" parent="1" source="lg_ZGlqCutBqFKEGHfZC-104" target="lg_ZGlqCutBqFKEGHfZC-80" edge="1">
          <mxGeometry width="50" height="50" relative="1" as="geometry">
            <mxPoint x="790" y="570" as="sourcePoint" />
            <mxPoint x="870" y="583" as="targetPoint" />
            <Array as="points">
              <mxPoint x="765" y="630" />
              <mxPoint x="260" y="610" />
            </Array>
          </mxGeometry>
        </mxCell>
        <mxCell id="lg_ZGlqCutBqFKEGHfZC-222" value="q26" style="ellipse;whiteSpace=wrap;html=1;aspect=fixed;fontSize=22;align=center;" parent="1" vertex="1">
          <mxGeometry x="270" y="167.5" width="35" height="35" as="geometry" />
        </mxCell>
        <mxCell id="lg_ZGlqCutBqFKEGHfZC-223" value="" style="endArrow=classic;html=1;rounded=0;exitX=1;exitY=0.5;exitDx=0;exitDy=0;entryX=0;entryY=0.5;entryDx=0;entryDy=0;" parent="1" source="lg_ZGlqCutBqFKEGHfZC-1" target="lg_ZGlqCutBqFKEGHfZC-222" edge="1">
          <mxGeometry width="50" height="50" relative="1" as="geometry">
            <mxPoint x="150" y="145" as="sourcePoint" />
            <mxPoint x="320" y="145" as="targetPoint" />
          </mxGeometry>
        </mxCell>
        <mxCell id="lg_ZGlqCutBqFKEGHfZC-224" value="_" style="edgeLabel;html=1;align=center;verticalAlign=middle;resizable=0;points=[];fontSize=18;" parent="lg_ZGlqCutBqFKEGHfZC-223" vertex="1" connectable="0">
          <mxGeometry x="0.1766" relative="1" as="geometry">
            <mxPoint x="4" y="-9" as="offset" />
          </mxGeometry>
        </mxCell>
        <mxCell id="lg_ZGlqCutBqFKEGHfZC-225" value="" style="endArrow=classic;html=1;rounded=0;exitX=0.5;exitY=1;exitDx=0;exitDy=0;entryX=1;entryY=0.5;entryDx=0;entryDy=0;" parent="1" edge="1">
          <mxGeometry width="50" height="50" relative="1" as="geometry">
            <mxPoint x="290" y="202.5" as="sourcePoint" />
            <mxPoint x="307.4999999999982" y="185" as="targetPoint" />
            <Array as="points">
              <mxPoint x="310" y="210" />
              <mxPoint x="327.5" y="197.5" />
            </Array>
          </mxGeometry>
        </mxCell>
        <mxCell id="lg_ZGlqCutBqFKEGHfZC-226" value="_" style="edgeLabel;html=1;align=center;verticalAlign=middle;resizable=0;points=[];fontSize=18;" parent="lg_ZGlqCutBqFKEGHfZC-225" vertex="1" connectable="0">
          <mxGeometry x="0.1766" relative="1" as="geometry">
            <mxPoint x="1" y="-20" as="offset" />
          </mxGeometry>
        </mxCell>
        <mxCell id="lg_ZGlqCutBqFKEGHfZC-227" value="" style="endArrow=classic;html=1;rounded=0;exitX=0.5;exitY=0;exitDx=0;exitDy=0;entryX=0;entryY=1;entryDx=0;entryDy=0;" parent="1" source="lg_ZGlqCutBqFKEGHfZC-222" target="lg_ZGlqCutBqFKEGHfZC-2" edge="1">
          <mxGeometry width="50" height="50" relative="1" as="geometry">
            <mxPoint x="335" y="160" as="sourcePoint" />
            <mxPoint x="510" y="160" as="targetPoint" />
          </mxGeometry>
        </mxCell>
        <mxCell id="lg_ZGlqCutBqFKEGHfZC-228" value="б,ц" style="edgeLabel;html=1;align=center;verticalAlign=middle;resizable=0;points=[];" parent="lg_ZGlqCutBqFKEGHfZC-227" vertex="1" connectable="0">
          <mxGeometry x="0.0436" y="-1" relative="1" as="geometry">
            <mxPoint as="offset" />
          </mxGeometry>
        </mxCell>
        <mxCell id="lg_ZGlqCutBqFKEGHfZC-229" value="q27" style="ellipse;whiteSpace=wrap;html=1;aspect=fixed;fontSize=22;align=center;" parent="1" vertex="1">
          <mxGeometry x="840" y="620" width="35" height="35" as="geometry" />
        </mxCell>
        <mxCell id="lg_ZGlqCutBqFKEGHfZC-230" value="" style="endArrow=classic;html=1;rounded=0;exitX=1;exitY=1;exitDx=0;exitDy=0;entryX=-0.046;entryY=0.231;entryDx=0;entryDy=0;entryPerimeter=0;" parent="1" source="lg_ZGlqCutBqFKEGHfZC-104" target="lg_ZGlqCutBqFKEGHfZC-229" edge="1">
          <mxGeometry width="50" height="50" relative="1" as="geometry">
            <mxPoint x="790" y="570" as="sourcePoint" />
            <mxPoint x="870" y="583" as="targetPoint" />
          </mxGeometry>
        </mxCell>
        <mxCell id="lg_ZGlqCutBqFKEGHfZC-231" value="_" style="edgeLabel;html=1;align=center;verticalAlign=middle;resizable=0;points=[];fontSize=18;" parent="lg_ZGlqCutBqFKEGHfZC-230" vertex="1" connectable="0">
          <mxGeometry x="0.1766" relative="1" as="geometry">
            <mxPoint x="-10" y="-15" as="offset" />
          </mxGeometry>
        </mxCell>
        <mxCell id="lg_ZGlqCutBqFKEGHfZC-232" value="" style="endArrow=classic;html=1;rounded=0;exitX=0.5;exitY=1;exitDx=0;exitDy=0;entryX=1;entryY=0.5;entryDx=0;entryDy=0;" parent="1" source="lg_ZGlqCutBqFKEGHfZC-229" target="lg_ZGlqCutBqFKEGHfZC-229" edge="1">
          <mxGeometry width="50" height="50" relative="1" as="geometry">
            <mxPoint x="786" y="581" as="sourcePoint" />
            <mxPoint x="848" y="638" as="targetPoint" />
            <Array as="points">
              <mxPoint x="890" y="660" />
              <mxPoint x="890" y="640" />
            </Array>
          </mxGeometry>
        </mxCell>
        <mxCell id="lg_ZGlqCutBqFKEGHfZC-233" value="_" style="edgeLabel;html=1;align=center;verticalAlign=middle;resizable=0;points=[];fontSize=18;" parent="lg_ZGlqCutBqFKEGHfZC-232" vertex="1" connectable="0">
          <mxGeometry x="0.1766" relative="1" as="geometry">
            <mxPoint x="5" y="-15" as="offset" />
          </mxGeometry>
        </mxCell>
        <mxCell id="lg_ZGlqCutBqFKEGHfZC-234" value="" style="endArrow=classic;html=1;rounded=0;exitX=1;exitY=0;exitDx=0;exitDy=0;entryX=0.5;entryY=1;entryDx=0;entryDy=0;" parent="1" source="lg_ZGlqCutBqFKEGHfZC-229" target="lg_ZGlqCutBqFKEGHfZC-89" edge="1">
          <mxGeometry width="50" height="50" relative="1" as="geometry">
            <mxPoint x="786" y="581" as="sourcePoint" />
            <mxPoint x="848" y="638" as="targetPoint" />
          </mxGeometry>
        </mxCell>
        <mxCell id="lg_ZGlqCutBqFKEGHfZC-235" value="б,ц" style="edgeLabel;html=1;align=center;verticalAlign=middle;resizable=0;points=[];fontSize=18;" parent="lg_ZGlqCutBqFKEGHfZC-234" vertex="1" connectable="0">
          <mxGeometry x="0.1766" relative="1" as="geometry">
            <mxPoint x="-14" y="6" as="offset" />
          </mxGeometry>
        </mxCell>
        <mxCell id="lg_ZGlqCutBqFKEGHfZC-236" value="" style="endArrow=classic;html=1;rounded=0;exitX=0.5;exitY=1;exitDx=0;exitDy=0;entryX=0;entryY=0;entryDx=0;entryDy=0;" parent="1" source="lg_ZGlqCutBqFKEGHfZC-77" target="lg_ZGlqCutBqFKEGHfZC-222" edge="1">
          <mxGeometry width="50" height="50" relative="1" as="geometry">
            <mxPoint x="250" y="55" as="sourcePoint" />
            <mxPoint x="320" y="145" as="targetPoint" />
          </mxGeometry>
        </mxCell>
        <mxCell id="lg_ZGlqCutBqFKEGHfZC-237" value="_" style="edgeLabel;html=1;align=center;verticalAlign=middle;resizable=0;points=[];fontSize=18;" parent="lg_ZGlqCutBqFKEGHfZC-236" vertex="1" connectable="0">
          <mxGeometry x="0.1766" relative="1" as="geometry">
            <mxPoint x="6" y="-13" as="offset" />
          </mxGeometry>
        </mxCell>
        <mxCell id="ZuOIpNTlUmzWjdwV7ESw-2" value="." style="edgeLabel;html=1;align=center;verticalAlign=middle;resizable=0;points=[];fontSize=18;" vertex="1" connectable="0" parent="1">
          <mxGeometry x="720.0000000000001" y="510" as="geometry">
            <mxPoint x="494" y="104" as="offset" />
          </mxGeometry>
        </mxCell>
      </root>
    </mxGraphModel>
  </diagram>
</mxfile>
